<?xml version="1.0" standalone="no"?>
<!DOCTYPE svg PUBLIC "-//W3C//DTD SVG 20010904//EN"
 "http://www.w3.org/TR/2001/REC-SVG-20010904/DTD/svg10.dtd">
<svg version="1.0" xmlns="http://www.w3.org/2000/svg"
 width="300.000000pt" height="300.000000pt" viewBox="0 0 300.000000 300.000000"
 preserveAspectRatio="xMidYMid meet">
<metadata>
Created by potrace 1.10, written by Peter Selinger 2001-2011
</metadata>
<g transform="translate(0.000000,300.000000) scale(0.100000,-0.100000)"
fill="#000000" stroke="none">
<path d="M1194 2282 c-23 -15 -62 -45 -88 -67 -37 -31 -54 -39 -80 -37 -48 5
-141 -34 -170 -70 -29 -38 -44 -33 -74 21 -20 35 -21 42 -8 47 8 3 29 -4 46
-16 17 -12 34 -20 37 -17 11 11 -62 47 -84 42 -19 -4 -23 -1 -23 20 0 34 18
32 80 -10 61 -41 83 -45 50 -10 -30 32 -125 79 -145 71 -30 -11 -2 -120 48
-188 l20 -27 -21 -86 c-23 -90 -29 -181 -12 -170 6 3 10 28 10 54 0 75 26 132
45 101 11 -18 71 -11 90 10 17 19 17 21 -1 41 -14 15 -28 20 -55 17 -36 -3
-38 -2 -41 29 -2 20 0 33 7 33 6 0 22 12 36 26 27 29 55 46 84 50 11 2 39 8
63 13 46 9 46 10 33 -36 -6 -20 -6 -35 0 -38 5 -4 9 3 9 15 0 42 31 79 113
134 46 31 88 56 94 56 16 0 23 -25 23 -82 0 -35 4 -48 13 -45 14 5 11 101 -4
130 -13 24 -47 20 -95 -11z m-289 -313 c0 -10 -12 -14 -39 -14 -45 0 -60 21
-24 34 28 10 63 -1 63 -20z"/>
<path d="M1830 2236 c-6 -8 -10 -25 -7 -38 4 -20 4 -20 6 5 2 51 51 23 109
-64 28 -41 35 -46 87 -56 34 -6 52 -6 46 0 -5 5 -29 12 -54 14 -36 4 -47 11
-62 36 -22 37 -94 117 -105 117 -4 0 -13 -7 -20 -14z"/>
<path d="M1191 2221 c-11 -11 -22 -17 -25 -15 -3 2 -4 1 -1 -2 2 -4 -4 -19
-15 -34 -36 -51 -22 -75 50 -86 25 -4 42 -4 39 0 -3 4 -26 10 -50 14 -56 10
-59 27 -16 83 23 31 40 44 58 44 23 0 24 -2 23 -70 0 -42 2 -62 7 -50 9 24 11
98 3 119 -8 22 -50 20 -73 -3z"/>
<path d="M1347 2163 c-15 -2 -32 -14 -38 -25 -10 -18 -8 -24 7 -35 85 -60 145
-152 163 -247 5 -26 19 -58 32 -72 16 -17 23 -37 24 -64 0 -22 3 -40 8 -40 4
0 7 5 7 11 0 5 25 22 55 36 l56 25 -7 45 -7 46 74 -5 c41 -3 88 -12 104 -21
l30 -16 -60 -1 c-39 -1 -72 -8 -95 -20 -43 -24 -37 -25 23 -4 26 9 65 14 85
12 27 -2 44 2 58 15 19 19 18 19 -15 48 -36 30 -109 59 -148 59 -13 0 -23 4
-23 8 0 14 54 84 94 121 57 55 50 74 -36 101 -60 19 -99 23 -218 25 -80 2
-157 1 -173 -2z m311 -27 c41 -9 97 -30 109 -40 9 -8 1 -23 -32 -59 -40 -45
-87 -125 -99 -172 -3 -11 -6 -39 -8 -62 -2 -37 -6 -44 -31 -53 -17 -5 -31 -10
-33 -10 -10 0 -64 112 -69 145 -11 60 -53 132 -113 192 -35 34 -49 55 -40 58
35 12 262 13 316 1z m162 -281 c56 -36 58 -47 3 -22 -33 15 -67 21 -110 21
-35 0 -63 1 -63 2 0 2 5 14 11 27 11 24 11 24 66 10 31 -8 72 -25 93 -38z"/>
<path d="M1840 2124 l0 -46 32 6 c17 3 34 8 36 11 9 8 -34 70 -51 73 -14 3
-17 -5 -17 -44z m43 -4 c3 -13 0 -20 -9 -20 -8 0 -14 9 -14 20 0 11 4 20 9 20
5 0 11 -9 14 -20z"/>
<path d="M2085 2025 c-8 -67 1 -146 21 -172 7 -10 14 -13 14 -6 0 9 7 10 25 3
49 -19 83 24 49 61 -22 25 -32 24 -62 -3 -14 -13 -22 -18 -18 -11 3 6 2 14 -4
18 -13 8 -13 105 1 105 5 0 7 5 4 10 -14 22 15 8 42 -20 16 -18 38 -30 53 -30
22 0 25 -5 26 -34 0 -19 6 -42 14 -51 7 -9 14 -46 16 -85 1 -38 5 -78 9 -89 8
-26 10 -26 -49 4 -28 14 -65 25 -85 24 l-36 -1 35 -7 c52 -10 115 -44 115 -61
0 -8 9 -15 20 -15 12 0 38 -24 69 -62 27 -35 52 -61 54 -58 7 7 -43 76 -83
115 -28 27 -32 37 -24 52 9 17 8 39 -7 119 -4 23 1 30 50 58 66 37 95 73 76
96 -9 11 -35 15 -107 15 -84 0 -98 3 -126 24 -18 13 -44 31 -58 40 l-27 17 -7
-56z m301 -67 c4 -7 4 -10 0 -7 -4 4 -21 -7 -38 -22 -33 -32 -74 -47 -89 -32
-5 5 -12 23 -15 41 l-6 32 70 0 c46 0 73 -4 78 -12z m-198 -72 c4 -21 -14 -37
-35 -29 -14 5 -18 35 -6 47 12 12 38 1 41 -18z"/>
<path d="M1028 2006 c-10 -7 -18 -20 -18 -28 0 -22 32 -47 55 -43 11 2 25 4
32 4 7 1 18 11 24 23 22 41 -51 76 -93 44z m77 -31 c0 -26 -55 -34 -75 -10
-18 22 2 36 45 33 22 -2 30 -8 30 -23z"/>
<path d="M1322 1973 c41 -93 23 -196 -42 -245 -25 -18 -26 -18 -84 13 -49 27
-72 33 -135 35 l-76 3 68 -9 c77 -10 189 -58 165 -71 -8 -5 -36 3 -73 21 -62
30 -165 51 -165 33 0 -6 24 -13 53 -16 67 -7 144 -36 125 -48 -7 -5 -26 -9
-43 -9 -16 0 -37 -5 -45 -10 -13 -9 -13 -10 0 -9 8 0 38 4 65 9 47 8 52 7 83
-23 17 -17 32 -26 32 -21 0 6 -9 19 -20 29 -11 10 -17 22 -14 26 8 14 31 10
49 -7 20 -20 33 -10 15 11 -10 13 -8 19 14 36 48 37 69 94 64 169 -5 63 -29
130 -48 130 -5 0 1 -21 12 -47z"/>
<path d="M1904 1975 c-4 -9 -2 -21 4 -27 15 -15 44 -1 40 19 -4 23 -36 29 -44
8z"/>
<path d="M1810 1912 c0 -5 19 -8 43 -8 38 1 43 -2 59 -34 17 -34 18 -34 18 -8
0 39 -24 58 -76 58 -24 0 -44 -4 -44 -8z"/>
<path d="M1045 1879 c-19 -17 -35 -38 -35 -45 0 -8 14 1 31 21 36 41 48 44 42
12 -3 -13 2 -29 10 -36 13 -10 18 -9 27 9 6 11 8 29 5 40 -5 15 -2 17 16 13
15 -4 20 -3 15 5 -14 24 -74 13 -111 -19z"/>
<path d="M818 1884 c13 -9 28 -28 34 -43 9 -22 12 -23 15 -8 5 22 -33 67 -56
67 -11 0 -9 -5 7 -16z"/>
<path d="M885 1820 c-4 -7 2 -9 19 -4 17 4 35 0 52 -11 30 -20 46 -11 18 10
-22 17 -80 20 -89 5z"/>
<path d="M2102 1814 c-12 -8 -22 -20 -22 -26 0 -6 8 -4 18 5 26 24 52 21 84
-10 38 -36 46 -23 9 16 -32 35 -56 39 -89 15z"/>
<path d="M1456 1769 c5 -34 2 -55 -11 -80 -12 -22 -20 -29 -22 -19 -12 43 -14
44 -32 14 -10 -17 -34 -43 -52 -57 -19 -15 -27 -27 -19 -27 18 1 50 26 73 60
l17 24 0 -28 c0 -25 2 -27 16 -15 40 33 62 135 35 162 -8 8 -9 -2 -5 -34z"/>
<path d="M1930 1795 c0 -9 7 -27 16 -40 16 -25 16 -25 -19 -25 -34 0 -54 20
-41 41 3 5 0 9 -5 9 -6 0 -11 -10 -11 -21 0 -29 74 -99 104 -99 43 0 38 19 -5
22 -46 3 -63 22 -28 31 14 4 31 -1 47 -14 31 -24 64 -24 85 -1 26 28 20 36 -9
13 -21 -16 -30 -18 -50 -9 -32 15 -30 23 8 34 54 16 47 40 -15 58 -68 20 -77
20 -77 1z m66 -30 c19 -14 19 -14 -2 -15 -12 0 -24 7 -28 15 -7 19 5 19 30 0z"/>
<path d="M2140 1782 c6 -13 14 -21 18 -18 3 4 -2 14 -12 24 -18 16 -18 16 -6
-6z"/>
<path d="M863 1775 c-3 -9 2 -24 11 -34 15 -16 15 -19 1 -24 -8 -4 -22 -3 -32
0 -10 4 -14 2 -10 -4 10 -15 149 -11 155 5 3 11 0 12 -16 3 -25 -13 -33 -13
-51 -2 -12 8 -12 12 2 25 9 9 14 23 11 31 -8 20 -63 19 -71 0z"/>
<path d="M745 1760 c-47 -23 -110 -78 -101 -87 4 -4 23 9 44 29 48 46 72 58
117 58 22 0 34 4 30 10 -10 16 -46 12 -90 -10z"/>
<path d="M769 1718 c-23 -18 -45 -40 -47 -48 -3 -8 10 -1 28 15 l32 30 -16
-32 c-35 -69 -59 -186 -59 -293 -1 -58 2 -121 6 -141 l7 -35 -72 -17 c-119
-29 -208 -57 -208 -67 0 -7 120 -381 124 -387 1 -1 48 12 105 28 285 80 527
112 836 112 208 -1 377 -14 535 -44 98 -19 306 -69 350 -84 24 -8 44 -14 45
-13 1 2 32 92 67 200 l65 196 -111 31 c-61 17 -126 34 -144 37 -29 6 -32 10
-28 33 19 98 15 232 -10 331 -6 24 -5 23 15 -5 11 -16 21 -24 21 -17 0 20 -55
96 -91 126 -44 37 -88 59 -106 51 -14 -5 -12 -10 10 -33 26 -27 66 -106 67
-129 0 -7 -8 -13 -18 -13 -18 0 -18 -4 5 -81 28 -100 29 -133 2 -184 -12 -22
-22 -41 -24 -43 -2 -2 -47 6 -131 23 -11 3 -26 16 -32 29 -10 22 -8 26 9 31
26 8 79 54 79 68 0 6 -12 -1 -27 -15 -34 -31 -67 -49 -110 -59 -43 -9 -43 8 0
26 27 12 28 14 9 15 -12 0 -30 -9 -39 -20 -18 -21 -48 -27 -58 -11 -3 5 9 21
27 35 18 14 28 26 22 26 -6 0 -23 -9 -38 -21 -33 -26 -37 -2 -5 27 12 10 46
49 76 87 35 43 61 67 74 67 30 0 89 -30 89 -45 0 -13 48 -50 56 -42 2 2 -18
25 -45 50 -42 40 -56 47 -90 47 -35 0 -44 -5 -78 -47 -21 -25 -57 -68 -80 -95
-24 -27 -43 -53 -43 -59 0 -5 12 -21 26 -36 23 -23 30 -25 78 -19 49 7 54 5
59 -14 5 -19 2 -21 -36 -16 -165 21 -257 27 -459 26 -126 -1 -233 1 -236 4 -8
8 39 56 55 56 7 0 13 5 13 10 0 18 -29 11 -50 -12 -11 -12 -20 -25 -20 -30 0
-16 -71 -86 -100 -98 -32 -13 -100 -6 -100 11 0 6 14 24 30 41 17 16 30 31 30
34 0 12 -24 1 -45 -22 -19 -21 -25 -23 -25 -10 0 9 12 26 27 39 15 12 43 40
63 62 82 93 99 105 144 105 30 0 55 -8 82 -26 57 -39 65 -53 60 -104 -4 -40
-3 -43 10 -25 34 47 0 111 -80 150 -54 26 -80 28 -127 10 -12 -4 -18 1 -23 19
-3 14 -12 26 -19 26 -8 0 -7 4 3 10 10 6 11 10 3 10 -16 0 -43 51 -44 82 l0
23 -10 -24 c-8 -19 -2 -36 30 -92 l40 -69 -90 -91 c-49 -51 -89 -94 -89 -96 0
-2 4 -12 10 -22 9 -17 4 -18 -47 -17 l-57 1 -22 63 c-12 35 -24 60 -27 55 -2
-4 4 -33 14 -63 21 -65 23 -85 8 -111 -10 -20 -11 -20 -30 -3 -10 9 -19 23
-19 31 0 7 -4 13 -10 13 -15 0 -12 -15 10 -42 22 -29 18 -38 -20 -38 -27 0
-30 6 -30 58 0 14 -4 20 -11 16 -7 -4 -8 -19 -5 -37 4 -20 3 -28 -3 -22 -12
13 -14 39 -13 158 2 90 4 100 27 122 43 44 98 26 192 -62 25 -24 51 -43 57
-43 20 0 -89 100 -121 112 -38 14 -38 14 -18 61 8 20 15 55 15 77 0 38 -3 42
-37 57 -21 8 -50 26 -66 39 l-27 23 27 15 c19 10 22 15 11 16 -9 0 -36 -15
-59 -32z m1411 -28 c14 -10 39 -32 55 -50 l30 -32 -29 -25 -30 -25 -13 44 c-7
25 -29 61 -49 82 -33 34 -34 38 -13 31 13 -4 35 -16 49 -25z m-1285 -100 c-4
-14 -9 -36 -11 -49 -7 -36 -12 -41 -46 -41 -51 0 -97 -61 -88 -120 1 -8 -2
-12 -6 -8 -13 14 -4 151 16 227 21 83 23 84 86 48 49 -28 54 -35 49 -57z
m1365 -72 c2 -18 3 -96 3 -173 0 -147 3 -157 47 -168 14 -3 36 -8 50 -12 14
-4 41 -10 60 -14 19 -4 44 -12 55 -18 20 -11 27 -13 44 -13 15 0 -77 -309 -99
-334 -5 -4 -79 10 -167 32 -87 22 -176 43 -198 47 -22 3 -65 10 -95 15 -99 17
-380 36 -493 34 -117 -3 -319 -14 -327 -19 -4 -2 -32 -7 -64 -10 -31 -4 -67
-8 -79 -11 -12 -2 -60 -11 -106 -20 -45 -8 -125 -28 -177 -44 -52 -15 -94 -26
-94 -23 0 3 -6 1 -13 -5 -7 -6 -17 -8 -23 -4 -6 4 -32 77 -59 162 -27 85 -50
160 -52 166 -4 10 47 35 67 34 3 -1 32 9 64 20 33 11 69 20 81 20 13 0 28 7
35 15 17 20 24 19 35 -7 6 -13 28 -32 50 -43 22 -11 41 -27 42 -35 22 -180 38
-213 92 -190 25 10 31 18 31 42 0 18 6 31 18 35 9 3 25 13 35 21 15 14 17 13
17 -9 0 -14 7 -35 16 -48 15 -21 22 -23 77 -17 32 3 66 11 73 17 17 14 19 55
3 65 -6 3 -9 18 -6 33 3 14 1 34 -4 43 -8 15 -6 18 11 18 11 0 20 -3 21 -7 0
-5 3 -28 5 -53 9 -96 28 -120 75 -97 22 11 24 19 27 91 3 77 3 78 22 61 22
-20 26 -45 10 -61 -16 -16 6 -57 40 -77 40 -24 90 -21 122 6 36 31 44 67 24
106 -15 27 -15 31 -1 31 8 0 18 0 23 0 4 0 7 -29 8 -64 0 -71 14 -96 50 -96
38 0 54 26 55 88 1 31 1 60 0 65 0 4 4 7 11 7 16 0 48 31 48 46 0 8 -8 23 -17
34 -15 17 -30 20 -93 20 -42 0 -81 -5 -87 -11 -7 -7 -21 -6 -46 5 -40 16 -49
16 -95 -3 -23 -10 -36 -11 -45 -2 -13 10 -107 8 -169 -5 -38 -8 -35 5 11 43
l39 33 264 -4 c246 -4 352 -10 388 -23 8 -3 38 -5 65 -5 28 0 75 -6 105 -14
78 -20 87 -18 114 24 39 58 41 105 11 239 -6 25 18 53 44 53 11 0 18 -10 21
-32z m-1205 -304 c20 -15 20 -15 0 -27 -11 -7 -48 -12 -81 -12 -62 0 -69 6
-43 40 13 17 102 16 124 -1z m467 -41 c10 -9 18 -22 18 -29 0 -16 -43 -12 -64
5 -8 7 -20 10 -26 6 -19 -12 -10 -33 18 -40 46 -11 72 -33 72 -62 0 -41 -27
-63 -76 -63 -34 0 -47 5 -64 28 l-22 27 27 3 c15 2 32 -1 38 -7 6 -6 19 -11
30 -11 35 0 14 33 -31 48 -43 14 -58 38 -50 78 8 43 90 53 130 17z m198 -4 c0
-13 -7 -19 -24 -19 -19 0 -24 -6 -30 -37 -3 -21 -6 -59 -6 -84 0 -45 -1 -46
-26 -41 l-27 5 6 78 5 79 -29 0 c-21 0 -29 5 -29 18 0 10 2 21 4 23 2 2 38 3
80 1 67 -3 76 -6 76 -23z m-357 1 c4 -17 0 -20 -25 -20 l-30 0 7 -85 7 -85
-25 0 c-24 0 -25 3 -32 85 l-7 84 -29 -6 c-24 -5 -29 -2 -29 15 0 24 17 29
101 31 49 1 57 -2 62 -19z m-183 -10 c0 -13 -7 -20 -19 -20 -33 0 -51 -11 -51
-32 0 -16 5 -18 35 -12 31 5 35 4 35 -15 0 -16 -6 -21 -28 -21 -35 0 -41 -6
-34 -32 4 -17 10 -19 43 -14 37 6 39 5 39 -19 0 -23 -4 -25 -42 -25 -24 0 -53
-3 -64 -6 -20 -5 -22 -1 -29 87 -3 50 -9 98 -12 105 -4 12 7 15 105 22 16 2
22 -3 22 -18z m-168 -27 c26 -23 24 -78 -4 -97 -12 -9 -33 -16 -47 -16 -22 0
-23 -3 -17 -39 5 -35 4 -39 -19 -43 -21 -4 -25 -1 -30 26 -2 17 -9 58 -15 90
-5 33 -10 65 -10 72 0 26 115 32 142 7z"/>
<path d="M1792 1188 c-23 -28 -93 -191 -88 -204 10 -25 55 -36 79 -19 29 20
44 19 74 -5 30 -23 66 -26 82 -6 9 11 6 37 -15 118 -14 56 -31 109 -36 116 -6
6 -27 12 -48 12 -21 0 -42 -6 -48 -12z m88 -50 c6 -24 19 -74 29 -111 l19 -69
-22 6 c-11 3 -24 6 -27 6 -4 0 -9 9 -12 20 -4 16 -14 20 -46 20 -30 0 -41 -4
-41 -15 0 -10 -10 -15 -31 -15 -17 0 -29 4 -27 8 2 5 23 50 47 100 40 84 47
92 72 92 25 0 30 -5 39 -42z"/>
<path d="M1819 1086 c-15 -34 -15 -34 8 -39 18 -3 23 0 22 17 0 11 -4 29 -7
39 -6 15 -10 12 -23 -17z"/>
<path d="M1952 1178 c-16 -16 -15 -35 7 -98 12 -33 17 -67 14 -87 -7 -40 18
-73 53 -73 25 0 54 34 54 62 0 9 21 47 47 84 l47 67 -23 18 c-28 23 -64 24
-81 4 -12 -14 -16 -13 -40 10 -28 27 -59 32 -78 13z m53 -18 c7 0 16 -17 20
-37 10 -57 15 -58 41 -16 20 35 27 39 53 35 l30 -4 -50 -68 c-32 -45 -49 -78
-49 -98 0 -26 -3 -29 -26 -24 -23 4 -25 9 -22 40 3 21 -5 60 -19 99 -27 75
-28 87 -7 79 9 -3 22 -6 29 -6z"/>
<path d="M924 1095 c3 -9 6 -23 6 -30 0 -11 6 -12 23 -6 33 12 29 45 -7 49
-23 3 -28 0 -22 -13z"/>
<path d="M1660 1740 c0 -5 15 -10 33 -11 l32 0 -32 -16 c-18 -9 -33 -20 -33
-24 0 -4 12 -2 27 6 19 10 32 11 46 4 18 -10 17 -12 -12 -30 -40 -24 -40 -34
-1 -14 31 16 40 6 21 -23 -7 -11 -81 -37 -131 -46 -83 -15 -93 -40 -55 -135
13 -35 27 -79 31 -97 3 -19 11 -34 16 -34 13 0 2 50 -33 139 -26 69 -27 75
-11 87 20 15 92 39 144 48 41 7 58 29 58 73 -1 35 -19 59 -54 73 -34 13 -46
13 -46 0z"/>
<path d="M961 1590 c-1 -14 6 -36 15 -48 17 -24 44 -30 44 -9 0 9 11 12 34 9
36 -4 76 12 76 30 0 9 -3 9 -12 0 -7 -7 -34 -12 -60 -12 -28 0 -48 -5 -48 -11
0 -22 -24 -1 -36 32 -11 30 -13 31 -13 9z"/>
<path d="M1120 1266 c-12 -33 -12 -36 -1 -36 10 0 25 50 17 58 -3 2 -10 -7
-16 -22z"/>
<path d="M340 994 c-58 -18 -113 -33 -123 -33 -27 -1 -20 -11 65 -98 l76 -79
-19 -104 c-10 -58 -19 -110 -19 -116 0 -8 20 -5 63 8 34 11 114 35 177 53 83
25 105 34 80 35 -64 0 -75 17 -131 193 -28 89 -54 165 -58 168 -3 3 -53 -9
-111 -27z m144 -144 c26 -78 53 -151 62 -164 18 -28 21 -27 -81 -59 -44 -14
-88 -29 -98 -33 -15 -5 -17 -2 -12 22 33 176 35 169 -53 264 -48 53 -50 55
-29 64 31 12 139 44 154 45 7 1 32 -61 57 -139z"/>
<path d="M2546 1018 c-45 -141 -92 -280 -103 -304 -17 -37 -49 -54 -89 -47
-16 3 -26 3 -23 0 5 -6 352 -107 356 -104 1 1 -9 52 -21 113 l-23 112 79 86
c51 54 75 88 66 90 -7 3 -56 16 -108 31 -52 14 -103 28 -113 31 -9 3 -19 -1
-21 -8z m154 -59 c25 -7 47 -14 49 -16 2 -1 -20 -27 -48 -56 -85 -88 -86 -90
-72 -161 7 -33 14 -75 16 -92 l3 -31 -92 25 c-50 13 -97 26 -103 28 -9 2 -8
12 6 36 10 18 35 83 54 143 58 180 49 167 99 150 24 -7 63 -19 88 -26z"/>
<path d="M1380 755 c0 -30 5 -55 10 -55 6 0 10 8 10 19 0 10 9 21 20 24 45 12
31 67 -16 67 -22 0 -24 -4 -24 -55z m50 20 c0 -8 -9 -15 -20 -15 -11 0 -20 7
-20 15 0 8 9 15 20 15 11 0 20 -7 20 -15z"/>
<path d="M1486 777 c-24 -58 -28 -77 -17 -77 6 0 11 5 11 10 0 15 48 12 53 -2
2 -7 7 -10 11 -6 9 7 -25 108 -36 108 -4 0 -14 -15 -22 -33z m34 -29 c0 -5 -6
-8 -14 -8 -9 0 -12 7 -9 21 4 16 8 17 14 7 5 -7 9 -16 9 -20z"/>
<path d="M1560 803 c1 -5 7 -19 15 -33 8 -14 14 -35 15 -47 0 -13 5 -23 10
-23 6 0 10 10 10 23 0 12 7 33 16 45 8 12 14 28 11 35 -2 6 -11 -1 -20 -18
l-15 -30 -11 28 c-9 24 -32 39 -31 20z"/>
<path d="M1120 773 c0 -38 13 -93 21 -93 5 0 6 12 3 28 l-7 27 25 -22 c13 -13
30 -23 37 -23 7 0 -1 11 -16 24 l-28 24 24 26 c20 21 21 26 8 26 -9 0 -23 -12
-31 -27 l-15 -28 -1 28 c0 15 -4 27 -10 27 -5 0 -10 -8 -10 -17z"/>
<path d="M1833 783 c-22 -8 -14 -43 12 -53 26 -10 34 -30 12 -30 -7 0 -18 5
-25 12 -17 17 -28 2 -12 -17 16 -20 44 -19 61 1 12 14 9 20 -16 40 -31 25 -27
46 5 26 22 -13 27 -3 8 16 -13 13 -24 14 -45 5z"/>
<path d="M1019 759 c-20 -20 -19 -48 3 -76 24 -30 88 -1 88 40 0 21 -35 57
-55 57 -8 0 -24 -9 -36 -21z m64 -20 c15 -24 1 -49 -27 -49 -29 0 -44 33 -25
56 15 18 38 15 52 -7z"/>
<path d="M1910 771 c0 -6 5 -11 11 -11 8 0 9 -15 5 -45 -4 -26 -3 -45 2 -45 5
0 13 21 17 46 5 34 10 44 21 40 8 -3 14 -1 14 4 0 6 -6 10 -12 10 -7 0 -23 3
-35 6 -14 4 -23 2 -23 -5z"/>
<path d="M630 743 c-30 -9 -57 -18 -59 -20 -2 -1 4 -12 14 -23 14 -16 31 -20
82 -20 34 0 63 4 63 9 0 22 -23 71 -33 70 -7 0 -37 -8 -67 -16z m65 -23 c4 -6
-9 -10 -32 -9 -30 0 -34 2 -18 9 27 12 43 12 50 0z"/>
<path d="M905 740 c-37 -41 11 -104 61 -81 19 8 24 18 24 45 0 53 -50 75 -85
36z m66 -16 c17 -21 0 -49 -32 -49 -24 0 -36 23 -25 51 7 19 40 18 57 -2z"/>
<path d="M1255 750 c-4 -6 8 -10 29 -10 20 0 36 5 36 10 0 6 -13 10 -29 10
-17 0 -33 -4 -36 -10z"/>
<path d="M1700 750 c0 -5 14 -10 30 -10 17 0 30 5 30 10 0 6 -13 10 -30 10
-16 0 -30 -4 -30 -10z"/>
<path d="M2002 718 c-24 -47 -29 -69 -10 -50 17 17 45 15 57 -5 16 -30 19 -11
8 45 -6 28 -16 52 -21 52 -6 0 -21 -19 -34 -42z m38 -8 c0 -11 -7 -20 -15 -20
-17 0 -18 2 -9 24 9 23 24 20 24 -4z"/>
<path d="M2286 743 c-2 -10 -7 -28 -11 -40 -6 -22 -4 -23 52 -23 54 0 103 18
103 38 0 6 -114 42 -133 42 -3 0 -8 -8 -11 -17z m59 -23 c3 -5 -3 -10 -14 -10
-12 0 -21 5 -21 10 0 6 6 10 14 10 8 0 18 -4 21 -10z"/>
<path d="M2097 728 c4 -13 7 -38 7 -55 -1 -38 11 -44 21 -10 4 12 17 32 28 44
11 13 18 26 14 29 -4 4 -15 -4 -25 -16 l-19 -23 -7 26 c-3 15 -11 27 -17 27
-6 0 -7 -8 -2 -22z"/>
<path d="M816 733 c-14 -4 -17 -11 -12 -35 3 -17 6 -39 6 -49 0 -24 42 -26 65
-3 13 13 13 19 3 31 -7 9 -12 25 -13 36 0 22 -16 29 -49 20z m37 -28 c1 -5 -6
-11 -15 -13 -11 -2 -18 3 -18 13 0 17 30 18 33 0z m10 -40 c1 -5 -6 -11 -15
-13 -11 -2 -18 3 -18 13 0 17 30 18 33 0z"/>
</g>
</svg>
